<svg xmlns="http://www.w3.org/2000/svg" width="980" height="520" viewBox="0 0 980 520">
<rect width="100%" height="100%" fill="#ffffff"/>
<text x="72" y="30" font-family="Arial, Noto Sans TC, sans-serif" font-size="22" font-weight="700" fill="#17202a">天氣條件 bike ratio</text>
<text x="72" y="502" font-family="Arial, Noto Sans TC, sans-serif" font-size="12" fill="#566573">hour bucket</text>
<text x="18" y="66" font-family="Arial, Noto Sans TC, sans-serif" font-size="12" fill="#566573">bike ratio</text>
<line x1="72" y1="54" x2="72" y2="456" stroke="#5d6d7e" stroke-width="1"/>
<line x1="72" y1="456" x2="956" y2="456" stroke="#5d6d7e" stroke-width="1"/>
<line x1="72.00" y1="54" x2="72.00" y2="456" stroke="#edf2f7" stroke-width="1"/>
<text x="72.00" y="478" text-anchor="middle" font-family="Arial" font-size="11" fill="#566573">0</text>
<line x1="187.30" y1="54" x2="187.30" y2="456" stroke="#edf2f7" stroke-width="1"/>
<text x="187.30" y="478" text-anchor="middle" font-family="Arial" font-size="11" fill="#566573">3</text>
<line x1="302.61" y1="54" x2="302.61" y2="456" stroke="#edf2f7" stroke-width="1"/>
<text x="302.61" y="478" text-anchor="middle" font-family="Arial" font-size="11" fill="#566573">6</text>
<line x1="417.91" y1="54" x2="417.91" y2="456" stroke="#edf2f7" stroke-width="1"/>
<text x="417.91" y="478" text-anchor="middle" font-family="Arial" font-size="11" fill="#566573">9</text>
<line x1="533.22" y1="54" x2="533.22" y2="456" stroke="#edf2f7" stroke-width="1"/>
<text x="533.22" y="478" text-anchor="middle" font-family="Arial" font-size="11" fill="#566573">12</text>
<line x1="648.52" y1="54" x2="648.52" y2="456" stroke="#edf2f7" stroke-width="1"/>
<text x="648.52" y="478" text-anchor="middle" font-family="Arial" font-size="11" fill="#566573">15</text>
<line x1="763.83" y1="54" x2="763.83" y2="456" stroke="#edf2f7" stroke-width="1"/>
<text x="763.83" y="478" text-anchor="middle" font-family="Arial" font-size="11" fill="#566573">18</text>
<line x1="879.13" y1="54" x2="879.13" y2="456" stroke="#edf2f7" stroke-width="1"/>
<text x="879.13" y="478" text-anchor="middle" font-family="Arial" font-size="11" fill="#566573">21</text>
<line x1="72" y1="456.00" x2="956" y2="456.00" stroke="#edf2f7" stroke-width="1"/>
<text x="62" y="460.00" text-anchor="end" font-family="Arial" font-size="11" fill="#566573">0.275</text>
<line x1="72" y1="355.50" x2="956" y2="355.50" stroke="#edf2f7" stroke-width="1"/>
<text x="62" y="359.50" text-anchor="end" font-family="Arial" font-size="11" fill="#566573">0.308</text>
<line x1="72" y1="255.00" x2="956" y2="255.00" stroke="#edf2f7" stroke-width="1"/>
<text x="62" y="259.00" text-anchor="end" font-family="Arial" font-size="11" fill="#566573">0.342</text>
<line x1="72" y1="154.50" x2="956" y2="154.50" stroke="#edf2f7" stroke-width="1"/>
<text x="62" y="158.50" text-anchor="end" font-family="Arial" font-size="11" fill="#566573">0.376</text>
<line x1="72" y1="54.00" x2="956" y2="54.00" stroke="#edf2f7" stroke-width="1"/>
<text x="62" y="58.00" text-anchor="end" font-family="Arial" font-size="11" fill="#566573">0.410</text>
<line x1="72" y1="48" x2="96" y2="48" stroke="#1f77b4" stroke-width="3"/>
<text x="102" y="52" font-family="Arial, Noto Sans TC, sans-serif" font-size="12" fill="#17202a">一般平日</text>
<line x1="210" y1="48" x2="234" y2="48" stroke="#2ca02c" stroke-width="3"/>
<text x="240" y="52" font-family="Arial, Noto Sans TC, sans-serif" font-size="12" fill="#17202a">一般週末</text>
<line x1="348" y1="48" x2="372" y2="48" stroke="#4c78a8" stroke-width="3"/>
<text x="378" y="52" font-family="Arial, Noto Sans TC, sans-serif" font-size="12" fill="#17202a">雨天</text>
<line x1="486" y1="48" x2="510" y2="48" stroke="#1b4f72" stroke-width="3"/>
<text x="516" y="52" font-family="Arial, Noto Sans TC, sans-serif" font-size="12" fill="#17202a">大雨天</text>
<line x1="624" y1="48" x2="648" y2="48" stroke="#c0392b" stroke-width="3"/>
<text x="654" y="52" font-family="Arial, Noto Sans TC, sans-serif" font-size="12" fill="#17202a">高溫天</text>
<polyline points="72.00,182.54 110.43,147.74 148.87,134.14 187.30,134.55 225.74,138.01 264.17,151.62 302.61,182.52 341.04,268.44 379.48,380.38 417.91,406.05 456.35,405.48 494.78,400.95 533.22,417.10 571.65,398.93 610.09,380.93 648.52,378.58 686.96,373.58 725.39,387.65 763.83,357.26 802.26,345.79 840.70,359.84 879.13,364.48 917.57,316.42 956.00,254.16" fill="none" stroke="#1f77b4" stroke-width="2.8" stroke-linejoin="round" stroke-linecap="round"/>
<polyline points="72.00,147.61 110.43,113.78 148.87,92.90 187.30,93.44 225.74,99.08 264.17,109.71 302.61,118.40 341.04,127.51 379.48,128.19 417.91,132.38 456.35,145.24 494.78,162.38 533.22,172.37 571.65,168.24 610.09,155.16 648.52,137.45 686.96,159.85 725.39,207.52 763.83,224.04 802.26,227.98 840.70,235.99 879.13,228.00 917.57,194.09 956.00,159.72" fill="none" stroke="#2ca02c" stroke-width="2.8" stroke-linejoin="round" stroke-linecap="round"/>
<polyline points="72.00,180.18 110.43,144.66 148.87,129.42 187.30,129.71 225.74,133.31 264.17,145.87 302.61,172.16 341.04,240.40 379.48,329.09 417.91,350.91 456.35,353.58 494.78,354.49 533.22,369.69 571.65,354.23 610.09,336.22 648.52,329.45 686.96,330.78 725.39,352.68 763.83,329.28 802.26,320.13 840.70,333.64 879.13,336.15 917.57,292.03 956.00,235.71" fill="none" stroke="#4c78a8" stroke-width="2.8" stroke-linejoin="round" stroke-linecap="round"/>
<polyline points="72.00,183.50 110.43,147.34 148.87,131.65 187.30,132.15 225.74,136.31 264.17,149.39 302.61,175.07 341.04,238.97 379.48,325.07 417.91,345.12 456.35,348.12 494.78,350.27 533.22,366.00 571.65,350.47 610.09,331.55 648.52,323.83 686.96,328.03 725.39,352.39 763.83,337.83 802.26,331.49 840.70,343.34 879.13,343.98 917.57,296.09 956.00,237.02" fill="none" stroke="#1b4f72" stroke-width="2.8" stroke-linejoin="round" stroke-linecap="round"/>
<polyline points="72.00,175.06 110.43,142.66 148.87,130.09 187.30,130.59 225.74,134.16 264.17,146.49 302.61,174.12 341.04,252.31 379.48,353.85 417.91,376.90 456.35,375.81 494.78,371.32 533.22,387.47 571.65,370.87 610.09,354.50 648.52,353.11 686.96,351.39 725.39,371.81 763.83,348.05 802.26,339.84 840.70,352.99 879.13,356.82 917.57,309.99 956.00,249.05" fill="none" stroke="#c0392b" stroke-width="2.8" stroke-linejoin="round" stroke-linecap="round"/>
</svg>
